<?xml version="1.0" standalone="no"?><!DOCTYPE svg PUBLIC "-//W3C//DTD SVG 1.1//EN" "http://www.w3.org/Graphics/SVG/1.1/DTD/svg11.dtd"><svg t="1731572617787" class="icon" viewBox="0 0 1024 1024" version="1.1" xmlns="http://www.w3.org/2000/svg" p-id="6096" xmlns:xlink="http://www.w3.org/1999/xlink" width="16" height="16"><path d="M512.15257725 177.19443741c-188.24608535 0-341.7647537 153.54124847-341.7647537 341.76475373 0 188.24608535 153.51866834 341.7647537 341.7647537 341.76475537 188.22350691 0 341.74217525-153.54124847 341.74217526-341.76475537 0-188.22350691-153.54124847-341.74217525-341.74217526-341.74217358m0-35.17900943c207.57421942 0 376.92118469 169.34696524 376.92118468 376.92118301 0 207.59679955-169.34696524 376.92118469-376.92118468 376.92118467-207.59679955 0-376.94376313-169.32438512-376.94376313-376.92118467 0-207.57421942 169.34696524-376.92118469 376.94376313-376.92118301" fill="#2c2c2c" p-id="6097"></path><path d="M508.78127323 161.11776585c197.63919759 0 357.84142527 160.22480779 357.84142692 357.84142529 0 197.63919759-160.20222767 357.84142527-357.84142692 357.84142692S150.93984796 716.62096884 150.93984796 518.95919114c0-197.61661746 160.20222767-357.84142527 357.84142527-357.84142529" fill="#2c2c2c" p-id="6098"></path></svg>